<svg xmlns="http://www.w3.org/2000/svg" fill="currentColor" viewBox="3490.245 2328.812 127.76 122.041"><path d="m3517.734 2406.052.079-.219c3.359-9.52 6.697-15.51 10.38-18.541-1.193-4.62-.375-11.422 2.505-21.089l.068-.229c-5.151-5-15.85-4.5-35.521 10.62 7.031 23.786 15.39 30.474 22.49 29.458m36.39.375c-.36.13-.73.26-1.099.39-1.943.688-3.953 1.397-5.734 2.245l-4.37 2.079.625-4.797c.255-1.959.307-4.089.36-6.151l.03-1.167-.697-.917c-1.256-1.635-2.547-3.323-3.907-4.76l-3.317-3.51 4.75-.891c1.937-.36 3.979-.969 5.953-1.552q.563-.172 1.11-.328.32-.476.655-.959c1.172-1.698 2.38-3.458 3.329-5.198l2.312-4.25 2.313 4.256c.947 1.734 2.161 3.494 3.328 5.198q.336.484.656.953.545.156 1.114.328c1.97.583 4.01 1.193 5.948 1.552l4.75.89-3.317 3.511c-1.36 1.437-2.651 3.125-3.907 4.76l-.698.917.032 1.162c.052 2.062.104 4.197.36 6.156l.624 4.797-4.37-2.079c-1.78-.848-3.791-1.557-5.734-2.244-.37-.13-.74-.26-1.099-.39m11.484 8.197.448-2.474 2.5.333c2.276.313 6.948-.666 16.219-6.807-3.88-10.417-7.078-13.943-9.12-15.042l-2.213-1.192 1.083-2.266c1.005-2.088 1.516-6.823-1.458-17.52-11.11.473-15.448 2.426-17.12 4.025l-1.823 1.74-1.823-1.74c-1.672-1.599-6.01-3.552-17.12-4.026-2.974 10.703-2.463 15.433-1.458 17.521l1.083 2.266-2.213 1.192c-2.042 1.1-5.235 4.625-9.12 15.042 9.266 6.14 13.927 7.12 16.219 6.807l2.494-.333.454 2.474c.411 2.281 2.776 6.406 11.484 13.323 8.708-6.917 11.073-11.042 11.484-13.323m-32.323-50.307c10.089.255 16.813 1.578 20.839 4.14 4.026-2.562 10.75-3.885 20.839-4.14l.229-.006c3.166-6.437-.61-16.458-21.068-30.5-20.464 14.042-24.234 24.063-21.068 30.5Zm19.24 69.062c-8.016-6.135-12.682-11.161-14.432-15.599-4.76-.297-10.98-3.177-19.292-8.906l-.182-.125c-6.344 3.354-9.177 13.672-.89 37.052 24.801.667 33.744-5.213 34.978-12.281Zm24.958-67.406.068.23c2.88 9.666 3.698 16.468 2.505 21.088 3.683 3.036 7.026 9.02 10.38 18.541l.079.22c7.099 1.015 15.458-5.673 22.49-29.46-19.673-15.119-30.37-15.619-35.522-10.619m12.146 42.776-.182.125c-8.313 5.73-14.531 8.61-19.292 8.906-1.75 4.438-6.416 9.464-14.432 15.6l-.182.14c1.234 7.068 10.177 12.948 34.979 12.281 8.291-23.38 5.453-33.698-.89-37.052"/><path d="M3554.125 2389.219a6.503 6.503 0 0 1 0 13.005 6.5 6.5 0 0 1-6.5-6.5 6.5 6.5 0 0 1 6.5-6.505"/></svg>